<?xml version="1.0" encoding="UTF-8" standalone="no"?>
<!-- Created with Inkscape (http://www.inkscape.org/) -->

<svg
   version="1.1"
   id="svg2"
   xml:space="preserve"
   width="151.37585"
   height="90.60041"
   viewBox="0 0 151.37586 90.600409"
   sodipodi:docname="logo.svg"
   inkscape:version="1.3.2 (091e20ef0f, 2023-11-25, custom)"
   xmlns:inkscape="http://www.inkscape.org/namespaces/inkscape"
   xmlns:sodipodi="http://sodipodi.sourceforge.net/DTD/sodipodi-0.dtd"
   xmlns="http://www.w3.org/2000/svg"
   xmlns:svg="http://www.w3.org/2000/svg"><defs
     id="defs6"><linearGradient
       id="swatch2"
       inkscape:swatch="solid"><stop
         style="stop-color:#ffffff;stop-opacity:1;"
         offset="0"
         id="stop2" /></linearGradient></defs><sodipodi:namedview
     id="namedview4"
     pagecolor="#ffffff"
     bordercolor="#666666"
     borderopacity="1.0"
     inkscape:pageshadow="2"
     inkscape:pageopacity="0.0"
     inkscape:pagecheckerboard="0"
     showgrid="false"
     inkscape:zoom="5.9784964"
     inkscape:cx="75.687927"
     inkscape:cy="67.073721"
     inkscape:window-width="1920"
     inkscape:window-height="1004"
     inkscape:window-x="0"
     inkscape:window-y="0"
     inkscape:window-maximized="1"
     inkscape:current-layer="g10"
     inkscape:showpageshadow="0"
     inkscape:deskcolor="#505050" /><g
     id="g8"
     inkscape:groupmode="layer"
     inkscape:label="fiks"
     transform="matrix(1.3333333,0,0,-1.3333333,4.1991675,86.117726)"><g
       id="g10"><path
         id="path14992-3"
         style="fill:#000000;fill-opacity:1;stroke:#ffffff;stroke-width:7.5;stroke-dasharray:none;stroke-opacity:1"
         d="m 103.1933,8.9315251 c -0.87367,0.203497 -1.13468,0.712129 -1.04617,2.0161929 0.0201,0.296703 0.0226,0.297552 0.40384,0.138259 0.48875,-0.204215 1.24362,-0.20442 1.63464,-4.56e-4 0.28744,0.149944 0.30731,0.144327 0.36979,-0.104588 0.0363,-0.14468 0.0388,-0.626928 0.006,-1.0716709 -0.0332,-0.444744 10e-4,-0.910687 -0.0656,-0.946881 -0.40648,-0.219802 -0.87925,-0.129354 -1.30211,-0.03088 z m -0.22122,2.4300349 c -0.49501,0.12229 -0.88236,0.396307 -1.06818,0.755655 -0.26066,0.504063 -0.5842,2.557025 -0.39288,2.518415 1.0238,-0.206636 2.11038,-0.595439 3.19306,-0.290629 0.21032,0.05921 0.40054,0.09571 0.42587,0.07038 0.0672,-0.0672 -0.26545,-2.054871 -0.40257,-2.40544 -0.21281,-0.544114 -1.00014,-0.834937 -1.7553,-0.648378 z m -1.15766,2.771825 c -0.20465,-0.05555 0.49558,-2.014335 0.63077,-2.081875 0.0135,0.543333 -0.15921,2.209834 -0.63077,2.081875 z m -0.28945,0.962969 c -0.42338,0.310621 -0.66709,1.3558 -1.29112,5.46005 l -0.278651,1.832715 v 38.310874 h 6.665781 l -0.0597,-19.439623 c -0.058,-18.859948 -0.0667,-19.497341 -0.292,-21.375292 -0.37411,-3.117688 -0.54664,-4.605776 -0.93354,-4.919012 -0.53846,-0.435942 -2.94985,-0.501339 -3.81074,0.130288 z m -0.42089,5.72891 c 0,0 -0.0977,9.328978 -0.11894,20.055117 l -0.0386,19.502075 -0.60417,-0.0696 V 41.398635 c 0,-10.402825 0.0829,-19.48928 0.0829,-19.48928 l 1.09895,-6.193457 z M 37.89425,31.838518 a 2.7372281,2.7372281 0 0 0 -2.737226,-2.737232 2.7372281,2.7372281 0 0 0 -2.737231,2.737232 2.7372281,2.7372281 0 0 0 2.737231,2.737225 2.7372281,2.7372281 0 0 0 2.737226,-2.737225 z M 1.5126779,19.125333 c 0.931201,0.912144 3.276815,1.597576 7.357154,3.234839 3.2779781,1.315305 3.0359281,1.167013 3.0285451,1.387676 -0.0087,0.25913 -0.102435,1.151465 -0.204802,1.949023 -0.100435,0.782557 -0.147859,1.477725 -0.260708,3.821721 -0.129337,9.833062 1.979974,17.486333 7.2397,22.423673 4.433175,4.161454 8.688952,5.314173 15.294137,5.219435 2.198582,-0.150456 2.71891,-0.278825 3.28016,-0.524413 1.072309,-0.469218 1.523622,-1.032178 1.502206,-2.427482 -0.02045,-1.33316 -0.521792,-2.023468 -1.622336,-2.568408 -0.504604,-0.249854 -0.592802,-0.187619 -2.693574,-0.03948 -2.836665,0.200016 -5.630834,0.07847 -8.242443,-1.083789 -3.619916,-1.610987 -6.107948,-4.588725 -7.484714,-8.406008 -1.546427,-4.287709 -1.940676,-8.621959 -1.724845,-12.941561 0.145346,-2.908984 0.225978,-3.602688 0.374167,-3.559173 1.492156,0.438152 3.044731,1.060407 4.50991,1.553924 2.237773,0.753747 2.423603,0.774422 3.301861,0.374806 0.979001,-0.445456 1.572224,-1.284694 1.638545,-2.318063 0.05304,-0.826556 -0.137131,-1.390536 -0.65677,-1.947736 -0.585372,-0.627679 -0.86749,-0.771356 -2.808349,-1.430256 -2.433988,-0.826305 -4.922966,-1.717479 -5.009882,-1.793775 -0.197025,-0.172961 1.401788,-5.371539 2.083106,-7.07388 0.683768,-1.708456 2.073472,-4.8663439 4.457297,-8.1833129 1.653574,-2.300874 -0.358853,-5.31070401 -3.313665,-4.22837901 -0.967658,0.354443 -2.034857,2.32042101 -2.034857,2.32042101 -2.823071,4.52298 -4.706593,7.9524799 -6.513664,15.1280089 0,0 -2.459626,-0.948903 -3.5832951,-1.338578 -2.564243,-0.889242 -4.952557,-2.229489 -6.076477,-2.196024 -1.353014,0.04028 -2.223028,0.84975 -2.6213,2.113005 -0.289507,0.918263 0.17194,1.93339 0.784893,2.533797 z M 79.959799,2.0150811 c -3.34143,0.889863 -5.01718,2.420965 -6.49669,3.931363 -0.0926,0.09453 -0.13446,0.08234 -0.16346,-0.01088 -0.1754,-0.564014 -0.25243,-0.751393 -0.44152,-1.074047 -0.51482,-0.878485 -1.3913,-1.261363 -3.41434,-1.598955 -2.42815,-0.405182 -5.17556,-0.309806 -7.22442,0.129497 -4.23365,0.907746 -5.98394,2.10896 -8.99763,4.820896 -0.0508,-1.632705 0.67976,-3.507272 0.0658,-4.942918 -0.3871,-0.905194 -1.53032,-1.697322 -2.66034,-1.580861 -0.98181,0.101188 -2.216926,0.86916 -2.415267,1.774929 -0.626728,2.862011 -0.833905,8.3616219 -1.03669,12.2297519 -0.234251,4.611075 -0.519257,9.499066 -0.727973,13.636621 -0.245502,4.866745 -1.189209,10.066172 -1.626449,14.505716 -0.176316,1.790232 0.620341,2.624343 2.153397,3.055122 1.67295,0.470091 3.079362,-0.769408 3.368542,-2.441503 0.82918,-4.79425 1.10944,-9.521422 1.57829,-14.392618 0.14946,-1.552813 0.30147,-5.558889 0.30147,-5.558889 0.21004,0.351993 2.08998,2.197602 2.93229,2.92738 1.25805,1.089982 2.67433,2.133549 3.76198,2.157898 0.76525,0.01715 1.5554,-0.380815 2.09949,-0.854825 0.84077,-0.732485 1.05352,-2.052119 0.48854,-3.0567 -1.1603,-2.063104 -3.21481,-1.519218 -5.91449,-6.089399 -0.71647,-1.212869 -0.59106,-2.877456 -0.30757,-4.188043 0.3265,-1.509447 2.61133,-4.26655 4.18953,-5.117034 3.681,-1.9836619 6.85021,-2.0848609 10.08824,-1.3708119 1.1895,0.262309 2.07056,0.0702 2.84047,-0.625367 0.25869,-0.233715 0.36594,-0.284824 0.44072,-0.210037 0.0543,0.05435 0.0721,0.09884 0.0394,0.09884 -0.12626,0 0.28402,0.882815 0.57571,1.238791 0.47334,0.577642 1.13848,0.9174549 1.89023,0.9656979 2.34144,0.04444 2.20866,-1.5809739 5.01177,-2.6119729 0.0935,-0.03595 1.25621,-0.497089 2.12315,-0.707395 1.41651,-0.34363 3.79129,-0.36488 4.69802,-0.04205 0.54773,0.19502 0.75349,0.414828 0.66335,0.826363 -0.72387,3.3047549 -4.25988,4.6386999 -6.21549,5.6291869 -5.0346,2.549937 -5.22803,6.391011 -4.7142,9.038205 0.27348,1.247514 0.98022,2.733415 1.56595,3.55171 1.25783,1.757257 2.95543,3.169122 5.4558,3.183251 1.42573,0.008 2.13397,-0.135934 3.21372,-0.761187 1.32421,-0.766821 1.83993,-1.454486 2.77532,-2.533489 0.82297,-0.949325 0.49925,-1.712545 0.0592,-2.678648 -0.42214,-0.926689 -1.62995,-1.46841 -2.43884,-1.465288 -1.40701,0.0057 -1.84971,1.009202 -2.75802,1.649922 -1.34184,0.946533 -2.28965,-1.220492 -2.48627,-2.23309 -0.24002,-1.448379 0.72868,-2.225426 1.50236,-2.711924 2.05932,-1.294915 3.8195,-1.816388 5.39055,-3.073786 2.01353,-1.611541 3.08067,-3.083762 3.89056,-5.7270019 0.27374,-0.893418 0.38449,-2.161738 0.26874,-3.048405 -0.31637,-2.423528 -2.33887,-4.50198 -4.71503,-4.981561 -3.79347,-0.76563701 -4.60344,-0.74748601 -8.67783,0.337574 z M 36.955278,1.7482941 c -0.756835,0.186736 -1.952852,0.810661 -2.222892,1.933339 -0.2566,1.066817 0.03025,2.19436 0.02911,3.2916 -0.0051,5.0814329 -0.398722,10.2996829 -1.276029,15.2506569 -0.208328,1.175661 -0.114581,1.934404 0.181529,2.746262 0.277953,0.762087 1.125435,1.341591 2.108048,1.3898 1.349026,0.06619 1.720293,-0.298588 2.388155,-0.928518 0.454719,-0.428888 0.545663,-0.550409 0.930091,-3.581888 0.862645,-6.802523 1.611594,-11.342674 1.04153,-17.8279799 -0.127069,-1.445639 -1.714009,-2.634865 -3.179525,-2.273272 z m 69.286962,1.935071 a 2.9092806,3.0392885 0 0 0 -2.90928,-3.03929001 2.9092806,3.0392885 0 0 0 -2.90928,3.03929001 2.9092806,3.0392885 0 0 0 2.90928,3.039284 2.9092806,3.0392885 0 0 0 2.90928,-3.039284 z"
         inkscape:export-filename="logo_discord_emote.png"
         inkscape:export-xdpi="300"
         inkscape:export-ydpi="300" /><path
         id="path14992"
         style="fill:#000000;fill-opacity:1;stroke:none;stroke-width:0;stroke-dasharray:none;stroke-opacity:1"
         d="m 103.1933,8.9315257 c -0.87367,0.203497 -1.13468,0.7121286 -1.04617,2.0161923 0.0201,0.296703 0.0226,0.297552 0.40384,0.138259 0.48875,-0.204215 1.24362,-0.20442 1.63464,-4.56e-4 0.28744,0.149944 0.30731,0.144327 0.36979,-0.104588 0.0363,-0.14468 0.0388,-0.626928 0.006,-1.0716712 -0.0332,-0.4447435 10e-4,-0.9106862 -0.0656,-0.9468803 -0.40648,-0.2198023 -0.87925,-0.1293541 -1.30211,-0.030879 z m -0.22122,2.4300343 c -0.49501,0.12229 -0.88236,0.396307 -1.06818,0.755655 -0.26066,0.504063 -0.5842,2.557025 -0.39288,2.518415 1.0238,-0.206636 2.11038,-0.595439 3.19306,-0.290629 0.21032,0.05921 0.40054,0.09571 0.42587,0.07038 0.0672,-0.0672 -0.26545,-2.054871 -0.40257,-2.40544 -0.21281,-0.544114 -1.00014,-0.834937 -1.7553,-0.648378 z m -1.15766,2.771825 c -0.20465,-0.05555 0.49558,-2.014335 0.63077,-2.081875 0.0135,0.543333 -0.15921,2.209834 -0.63077,2.081875 z m -0.28945,0.962969 c -0.42338,0.310621 -0.66709,1.3558 -1.29112,5.46005 l -0.27865,1.832715 v 38.310874 h 6.66578 l -0.0597,-19.439623 c -0.058,-18.859948 -0.0667,-19.497341 -0.292,-21.375292 -0.37411,-3.117688 -0.54664,-4.605776 -0.93354,-4.919012 -0.53846,-0.435942 -2.94985,-0.501339 -3.81074,0.130288 z m -0.42089,5.72891 c 0,0 -0.0977,9.328978 -0.11894,20.055117 l -0.0386,19.502075 -0.60417,-0.0696 V 41.398635 c 0,-10.402825 0.0829,-19.48928 0.0829,-19.48928 l 1.09895,-6.193457 z M 37.89425,31.838518 a 2.7372281,2.7372281 0 0 0 -2.737226,-2.737232 2.7372281,2.7372281 0 0 0 -2.737231,2.737232 2.7372281,2.7372281 0 0 0 2.737231,2.737225 2.7372281,2.7372281 0 0 0 2.737226,-2.737225 z M 1.5126777,19.125333 c 0.9312017,0.912144 3.2768158,1.597576 7.3571542,3.234839 3.2779781,1.315305 3.0359281,1.167013 3.0285451,1.387676 -0.0087,0.25913 -0.102435,1.151465 -0.204802,1.949023 -0.100435,0.782557 -0.147859,1.477725 -0.260708,3.821721 -0.129337,9.833062 1.979974,17.486333 7.2397,22.423673 4.433175,4.161454 8.688952,5.314173 15.294137,5.219435 2.198582,-0.150456 2.71891,-0.278825 3.28016,-0.524413 1.072309,-0.469218 1.523622,-1.032178 1.502206,-2.427482 -0.02045,-1.33316 -0.521792,-2.023468 -1.622336,-2.568408 -0.504604,-0.249854 -0.592802,-0.187619 -2.693574,-0.03948 -2.836665,0.200016 -5.630834,0.07847 -8.242443,-1.083789 -3.619916,-1.610987 -6.107948,-4.588725 -7.484714,-8.406008 -1.546427,-4.287709 -1.940676,-8.621959 -1.724845,-12.941561 0.145346,-2.908984 0.225978,-3.602688 0.374167,-3.559173 1.492156,0.438152 3.044731,1.060407 4.50991,1.553924 2.237773,0.753747 2.423603,0.774422 3.301861,0.374806 0.979001,-0.445456 1.572224,-1.284694 1.638545,-2.318063 0.05304,-0.826556 -0.137131,-1.390536 -0.65677,-1.947736 -0.585372,-0.627679 -0.86749,-0.771356 -2.808349,-1.430256 -2.433988,-0.826305 -4.922966,-1.717479 -5.009882,-1.793775 -0.197025,-0.172961 1.401788,-5.371539 2.083106,-7.07388 C 21.097514,11.26795 22.487218,8.1100628 24.871043,4.7930933 26.524617,2.492219 24.51219,-0.51761061 21.557378,0.56471409 20.58972,0.91915754 19.522521,2.8851354 19.522521,2.8851354 16.69945,7.408115 14.815928,10.837615 13.008857,18.013144 c 0,0 -2.459626,-0.948903 -3.5832951,-1.338578 -2.5642429,-0.889242 -4.9525573,-2.229489 -6.076477,-2.196024 -1.3530141,0.04028 -2.2230283,0.84975 -2.62130001,2.113005 -0.28950716,0.918263 0.17194045,1.93339 0.78489281,2.533797 z M 79.959801,2.0150814 C 76.618368,2.9049444 74.942615,4.4360463 73.463107,5.9464446 73.370505,6.0409776 73.328648,6.02878 73.299649,5.935563 73.124245,5.3715493 73.047219,5.1841695 72.858131,4.8615163 72.343306,3.9830304 71.466831,3.6001524 69.443785,3.2625612 67.015642,2.8573788 64.268224,2.952755 62.219369,3.3920578 57.985714,4.2998042 56.235426,5.5010174 53.221739,8.2129536 53.17092,6.5802485 53.901502,4.7056817 53.287553,3.2700359 52.900453,2.3648418 51.757231,1.5727136 50.62721,1.689175 c -0.981815,0.1011874 -2.216927,0.8691596 -2.415268,1.7749291 -0.626728,2.862011 -0.833905,8.3616219 -1.03669,12.2297519 -0.234251,4.611075 -0.519257,9.499066 -0.727973,13.636621 -0.245502,4.866747 -1.189209,10.066174 -1.626449,14.505718 -0.176316,1.790232 0.620341,2.624343 2.153397,3.055122 1.67295,0.470091 3.079358,-0.769408 3.368546,-2.441503 0.829177,-4.79425 1.109432,-9.521422 1.578286,-14.392618 0.149459,-1.552813 0.301471,-5.558889 0.301471,-5.558889 0.210038,0.351993 2.089977,2.197602 2.932286,2.92738 1.258053,1.089982 2.674329,2.133549 3.76198,2.157898 0.765249,0.01715 1.555401,-0.380815 2.099491,-0.854825 0.840771,-0.732485 1.05352,-2.052119 0.488538,-3.0567 -1.160296,-2.063104 -3.214802,-1.519218 -5.914484,-6.089399 -0.71647,-1.212869 -0.591058,-2.877456 -0.307573,-4.188043 0.326499,-1.509447 2.611336,-4.26655 4.189536,-5.117034 3.680996,-1.9836623 6.850204,-2.084861 10.088233,-1.3708125 1.189506,0.2623089 2.070561,0.070201 2.84047,-0.6253665 0.258691,-0.2337148 0.36594,-0.2848241 0.440727,-0.2100374 0.05435,0.054351 0.07206,0.09884 0.03937,0.09884 -0.126261,0 0.284015,0.8828156 0.575709,1.2387916 0.473332,0.5776413 1.138476,0.9174548 1.890223,0.9656978 2.341444,0.04444 2.208666,-1.5809746 5.011774,-2.6119735 0.0935,-0.035949 1.256208,-0.4970891 2.123151,-0.7073942 1.416509,-0.3436303 3.791293,-0.3648807 4.698019,-0.042045 0.547732,0.1950196 0.75349,0.4148277 0.66335,0.8263624 -0.723876,3.3047553 -4.259879,4.6387003 -6.215494,5.6291873 -5.034596,2.549937 -5.228026,6.391011 -4.714193,9.038205 0.273481,1.247514 0.98022,2.733415 1.565945,3.55171 1.257832,1.757257 2.955428,3.169122 5.455805,3.183251 1.425722,0.008 2.133965,-0.135934 3.213714,-0.761187 1.324215,-0.766821 1.839928,-1.454486 2.775318,-2.533489 0.822972,-0.949325 0.499254,-1.712545 0.05918,-2.678648 -0.422131,-0.926689 -1.629948,-1.46841 -2.438837,-1.465288 -1.407012,0.0057 -1.849704,1.009202 -2.758015,1.649922 -1.341847,0.946533 -2.289656,-1.220492 -2.486271,-2.23309 -0.240022,-1.448379 0.728673,-2.225426 1.502359,-2.711924 2.059321,-1.294915 3.819494,-1.816388 5.390544,-3.073786 2.013533,-1.611541 3.080674,-3.083762 3.890566,-5.727002 C 93.357688,8.81409 93.468441,7.5457699 93.352692,6.659103 93.036317,4.2355744 91.013817,2.1571231 88.637655,1.6775414 84.844192,0.91190505 84.03422,0.93005622 79.95983,2.0151156 Z M 36.955278,1.7482945 c -0.756835,0.186736 -1.952852,0.8106611 -2.222892,1.9333388 -0.2566,1.066817 0.03025,2.1943601 0.02911,3.2916 -0.0051,5.0814327 -0.398722,10.2996827 -1.276029,15.2506567 -0.208328,1.175661 -0.114581,1.934404 0.181529,2.746262 0.277953,0.762087 1.125435,1.341591 2.108048,1.3898 1.349026,0.06619 1.720293,-0.298588 2.388155,-0.928518 0.454719,-0.428888 0.545663,-0.550409 0.930091,-3.581888 0.862645,-6.802523 1.611594,-11.342674 1.04153,-17.8279799 -0.127069,-1.4456387 -1.714009,-2.634865 -3.179525,-2.2732716 z m 69.286962,1.9350707 a 2.9092806,3.0392885 0 0 0 -2.90928,-3.03928959 2.9092806,3.0392885 0 0 0 -2.90928,3.03928959 2.9092806,3.0392885 0 0 0 2.90928,3.039284 2.9092806,3.0392885 0 0 0 2.90928,-3.039284 z" /></g></g></svg>
